<svg width="64" height="64" viewBox="0 0 64 64" fill="none" xmlns="http://www.w3.org/2000/svg">
<circle cx="32" cy="32" r="32" fill="white"/>
<path d="M32 0C25.671 0 19.4841 1.87677 14.2218 5.39297C8.9594 8.90918 4.85788 13.9069 2.43587 19.7541C0.0138652 25.6014 -0.619842 32.0355 0.614886 38.2429C1.84961 44.4503 4.89732 50.1521 9.3726 54.6274C13.8479 59.1027 19.5497 62.1504 25.7571 63.3851C31.9645 64.6198 38.3987 63.9861 44.2459 61.5641C50.0931 59.1421 55.0909 55.0406 58.6071 49.7782C62.1233 44.5159 64 38.329 64 32C64 23.5131 60.6286 15.3737 54.6274 9.37258C48.6263 3.37142 40.487 0 32 0ZM33.3718 19.6565C36.2806 19.6599 39.0693 20.817 41.1262 22.8738C43.1831 24.9307 44.3401 27.7194 44.3435 30.6283H41.6C41.5978 28.4467 40.7301 26.3551 39.1875 24.8125C37.6449 23.2699 35.5533 22.4023 33.3718 22.4V19.6565ZM42.2571 51.2C42.1739 51.2 33.9371 51.0592 23.3451 40.6549C12.9408 30.0672 12.8 21.8261 12.8 21.7429C12.8 20.7168 19.2 12.8 20.6144 12.8C21.1051 12.8 21.487 13.1328 21.9051 13.632C22.912 14.8309 27.3643 21.8581 27.1595 23.0293C27.0614 23.5797 26.5942 23.9979 25.2544 25.1221C24.5943 25.6411 23.9765 26.2118 23.407 26.8288C23.6797 27.9578 24.085 29.0505 24.6144 30.0843C26.5868 34.1396 29.8638 37.4151 33.92 39.3856C34.9538 39.915 36.0465 40.3203 37.1755 40.5931C37.7925 40.0235 38.3632 39.4057 38.8822 38.7456C40.0064 37.4059 40.4246 36.9387 40.975 36.8405C42.1462 36.6272 49.1734 41.088 50.3723 42.0949C50.8715 42.5216 51.2043 42.8949 51.2043 43.3856C51.2 44.8 43.2832 51.2 42.2571 51.2ZM48.4566 30.6283C48.452 26.6289 46.8613 22.7947 44.0333 19.9667C41.2054 17.1387 37.3711 15.548 33.3718 15.5435V12.8C38.0984 12.8056 42.6298 14.6858 45.972 18.028C49.3142 21.3702 51.1944 25.9016 51.2 30.6283H48.4566Z" fill="url(#paint0_linear_3241_313539)"/>
<defs>
<linearGradient id="paint0_linear_3241_313539" x1="3.15152" y1="7.2" x2="67.9918" y2="27.7241" gradientUnits="userSpaceOnUse">
<stop stop-color="#FBD17F"/>
<stop offset="1" stop-color="#DFA100"/>
</linearGradient>
</defs>
</svg>
